<?xml version="1.0" encoding="UTF-8"?>
<svg xmlns="http://www.w3.org/2000/svg" width="120" height="120" viewBox="0 0 120 120">
  <!-- pallet 234 -->
  <rect width="120" height="120" fill="white"/>
  <rect x="12" y="12" width="6" height="6" fill="black"/>
  <rect x="18" y="12" width="6" height="6" fill="black"/>
  <rect x="24" y="12" width="6" height="6" fill="black"/>
  <rect x="30" y="12" width="6" height="6" fill="black"/>
  <rect x="36" y="12" width="6" height="6" fill="black"/>
  <rect x="42" y="12" width="6" height="6" fill="black"/>
  <rect x="48" y="12" width="6" height="6" fill="black"/>
  <rect x="54" y="12" width="6" height="6" fill="black"/>
  <rect x="60" y="12" width="6" height="6" fill="black"/>
  <rect x="66" y="12" width="6" height="6" fill="black"/>
  <rect x="72" y="12" width="6" height="6" fill="black"/>
  <rect x="78" y="12" width="6" height="6" fill="black"/>
  <rect x="84" y="12" width="6" height="6" fill="black"/>
  <rect x="90" y="12" width="6" height="6" fill="black"/>
  <rect x="96" y="12" width="6" height="6" fill="black"/>
  <rect x="102" y="12" width="6" height="6" fill="black"/>
  <rect x="12" y="18" width="6" height="6" fill="black"/>
  <rect x="30" y="18" width="6" height="6" fill="black"/>
  <rect x="36" y="18" width="6" height="6" fill="black"/>
  <rect x="42" y="18" width="6" height="6" fill="black"/>
  <rect x="54" y="18" width="6" height="6" fill="black"/>
  <rect x="66" y="18" width="6" height="6" fill="black"/>
  <rect x="78" y="18" width="6" height="6" fill="black"/>
  <rect x="96" y="18" width="6" height="6" fill="black"/>
  <rect x="12" y="24" width="6" height="6" fill="black"/>
  <rect x="30" y="24" width="6" height="6" fill="black"/>
  <rect x="36" y="24" width="6" height="6" fill="black"/>
  <rect x="48" y="24" width="6" height="6" fill="black"/>
  <rect x="54" y="24" width="6" height="6" fill="black"/>
  <rect x="66" y="24" width="6" height="6" fill="black"/>
  <rect x="72" y="24" width="6" height="6" fill="black"/>
  <rect x="78" y="24" width="6" height="6" fill="black"/>
  <rect x="90" y="24" width="6" height="6" fill="black"/>
  <rect x="102" y="24" width="6" height="6" fill="black"/>
  <rect x="12" y="30" width="6" height="6" fill="black"/>
  <rect x="18" y="30" width="6" height="6" fill="black"/>
  <rect x="24" y="30" width="6" height="6" fill="black"/>
  <rect x="30" y="30" width="6" height="6" fill="black"/>
  <rect x="36" y="30" width="6" height="6" fill="black"/>
  <rect x="48" y="30" width="6" height="6" fill="black"/>
  <rect x="60" y="30" width="6" height="6" fill="black"/>
  <rect x="72" y="30" width="6" height="6" fill="black"/>
  <rect x="78" y="30" width="6" height="6" fill="black"/>
  <rect x="84" y="30" width="6" height="6" fill="black"/>
  <rect x="90" y="30" width="6" height="6" fill="black"/>
  <rect x="12" y="36" width="6" height="6" fill="black"/>
  <rect x="18" y="36" width="6" height="6" fill="black"/>
  <rect x="30" y="36" width="6" height="6" fill="black"/>
  <rect x="36" y="36" width="6" height="6" fill="black"/>
  <rect x="60" y="36" width="6" height="6" fill="black"/>
  <rect x="72" y="36" width="6" height="6" fill="black"/>
  <rect x="84" y="36" width="6" height="6" fill="black"/>
  <rect x="96" y="36" width="6" height="6" fill="black"/>
  <rect x="102" y="36" width="6" height="6" fill="black"/>
  <rect x="12" y="42" width="6" height="6" fill="black"/>
  <rect x="18" y="42" width="6" height="6" fill="black"/>
  <rect x="24" y="42" width="6" height="6" fill="black"/>
  <rect x="54" y="42" width="6" height="6" fill="black"/>
  <rect x="60" y="42" width="6" height="6" fill="black"/>
  <rect x="78" y="42" width="6" height="6" fill="black"/>
  <rect x="84" y="42" width="6" height="6" fill="black"/>
  <rect x="90" y="42" width="6" height="6" fill="black"/>
  <rect x="12" y="48" width="6" height="6" fill="black"/>
  <rect x="42" y="48" width="6" height="6" fill="black"/>
  <rect x="48" y="48" width="6" height="6" fill="black"/>
  <rect x="60" y="48" width="6" height="6" fill="black"/>
  <rect x="72" y="48" width="6" height="6" fill="black"/>
  <rect x="78" y="48" width="6" height="6" fill="black"/>
  <rect x="84" y="48" width="6" height="6" fill="black"/>
  <rect x="96" y="48" width="6" height="6" fill="black"/>
  <rect x="102" y="48" width="6" height="6" fill="black"/>
  <rect x="12" y="54" width="6" height="6" fill="black"/>
  <rect x="24" y="54" width="6" height="6" fill="black"/>
  <rect x="48" y="54" width="6" height="6" fill="black"/>
  <rect x="54" y="54" width="6" height="6" fill="black"/>
  <rect x="60" y="54" width="6" height="6" fill="black"/>
  <rect x="66" y="54" width="6" height="6" fill="black"/>
  <rect x="72" y="54" width="6" height="6" fill="black"/>
  <rect x="78" y="54" width="6" height="6" fill="black"/>
  <rect x="84" y="54" width="6" height="6" fill="black"/>
  <rect x="90" y="54" width="6" height="6" fill="black"/>
  <rect x="12" y="60" width="6" height="6" fill="black"/>
  <rect x="30" y="60" width="6" height="6" fill="black"/>
  <rect x="48" y="60" width="6" height="6" fill="black"/>
  <rect x="54" y="60" width="6" height="6" fill="black"/>
  <rect x="84" y="60" width="6" height="6" fill="black"/>
  <rect x="102" y="60" width="6" height="6" fill="black"/>
  <rect x="12" y="66" width="6" height="6" fill="black"/>
  <rect x="24" y="66" width="6" height="6" fill="black"/>
  <rect x="36" y="66" width="6" height="6" fill="black"/>
  <rect x="42" y="66" width="6" height="6" fill="black"/>
  <rect x="48" y="66" width="6" height="6" fill="black"/>
  <rect x="54" y="66" width="6" height="6" fill="black"/>
  <rect x="60" y="66" width="6" height="6" fill="black"/>
  <rect x="72" y="66" width="6" height="6" fill="black"/>
  <rect x="78" y="66" width="6" height="6" fill="black"/>
  <rect x="84" y="66" width="6" height="6" fill="black"/>
  <rect x="90" y="66" width="6" height="6" fill="black"/>
  <rect x="96" y="66" width="6" height="6" fill="black"/>
  <rect x="12" y="72" width="6" height="6" fill="black"/>
  <rect x="18" y="72" width="6" height="6" fill="black"/>
  <rect x="24" y="72" width="6" height="6" fill="black"/>
  <rect x="30" y="72" width="6" height="6" fill="black"/>
  <rect x="42" y="72" width="6" height="6" fill="black"/>
  <rect x="48" y="72" width="6" height="6" fill="black"/>
  <rect x="60" y="72" width="6" height="6" fill="black"/>
  <rect x="66" y="72" width="6" height="6" fill="black"/>
  <rect x="72" y="72" width="6" height="6" fill="black"/>
  <rect x="84" y="72" width="6" height="6" fill="black"/>
  <rect x="96" y="72" width="6" height="6" fill="black"/>
  <rect x="102" y="72" width="6" height="6" fill="black"/>
  <rect x="12" y="78" width="6" height="6" fill="black"/>
  <rect x="30" y="78" width="6" height="6" fill="black"/>
  <rect x="36" y="78" width="6" height="6" fill="black"/>
  <rect x="42" y="78" width="6" height="6" fill="black"/>
  <rect x="60" y="78" width="6" height="6" fill="black"/>
  <rect x="90" y="78" width="6" height="6" fill="black"/>
  <rect x="96" y="78" width="6" height="6" fill="black"/>
  <rect x="12" y="84" width="6" height="6" fill="black"/>
  <rect x="24" y="84" width="6" height="6" fill="black"/>
  <rect x="36" y="84" width="6" height="6" fill="black"/>
  <rect x="54" y="84" width="6" height="6" fill="black"/>
  <rect x="66" y="84" width="6" height="6" fill="black"/>
  <rect x="72" y="84" width="6" height="6" fill="black"/>
  <rect x="78" y="84" width="6" height="6" fill="black"/>
  <rect x="84" y="84" width="6" height="6" fill="black"/>
  <rect x="90" y="84" width="6" height="6" fill="black"/>
  <rect x="102" y="84" width="6" height="6" fill="black"/>
  <rect x="12" y="90" width="6" height="6" fill="black"/>
  <rect x="18" y="90" width="6" height="6" fill="black"/>
  <rect x="42" y="90" width="6" height="6" fill="black"/>
  <rect x="48" y="90" width="6" height="6" fill="black"/>
  <rect x="60" y="90" width="6" height="6" fill="black"/>
  <rect x="72" y="90" width="6" height="6" fill="black"/>
  <rect x="78" y="90" width="6" height="6" fill="black"/>
  <rect x="96" y="90" width="6" height="6" fill="black"/>
  <rect x="12" y="96" width="6" height="6" fill="black"/>
  <rect x="24" y="96" width="6" height="6" fill="black"/>
  <rect x="30" y="96" width="6" height="6" fill="black"/>
  <rect x="42" y="96" width="6" height="6" fill="black"/>
  <rect x="48" y="96" width="6" height="6" fill="black"/>
  <rect x="60" y="96" width="6" height="6" fill="black"/>
  <rect x="72" y="96" width="6" height="6" fill="black"/>
  <rect x="78" y="96" width="6" height="6" fill="black"/>
  <rect x="84" y="96" width="6" height="6" fill="black"/>
  <rect x="102" y="96" width="6" height="6" fill="black"/>
  <rect x="12" y="102" width="6" height="6" fill="black"/>
  <rect x="24" y="102" width="6" height="6" fill="black"/>
  <rect x="36" y="102" width="6" height="6" fill="black"/>
  <rect x="48" y="102" width="6" height="6" fill="black"/>
  <rect x="60" y="102" width="6" height="6" fill="black"/>
  <rect x="72" y="102" width="6" height="6" fill="black"/>
  <rect x="84" y="102" width="6" height="6" fill="black"/>
  <rect x="96" y="102" width="6" height="6" fill="black"/>
</svg>
