<?xml version="1.0" encoding="UTF-8"?>
<svg xmlns="http://www.w3.org/2000/svg" width="100" height="100" viewBox="0 0 100 100">
  <!-- pallet 234 -->
  <rect width="100" height="100" fill="white"/>
  <rect x="10" y="10" width="5" height="5" fill="black"/>
  <rect x="15" y="10" width="5" height="5" fill="black"/>
  <rect x="20" y="10" width="5" height="5" fill="black"/>
  <rect x="25" y="10" width="5" height="5" fill="black"/>
  <rect x="30" y="10" width="5" height="5" fill="black"/>
  <rect x="35" y="10" width="5" height="5" fill="black"/>
  <rect x="40" y="10" width="5" height="5" fill="black"/>
  <rect x="45" y="10" width="5" height="5" fill="black"/>
  <rect x="50" y="10" width="5" height="5" fill="black"/>
  <rect x="55" y="10" width="5" height="5" fill="black"/>
  <rect x="60" y="10" width="5" height="5" fill="black"/>
  <rect x="65" y="10" width="5" height="5" fill="black"/>
  <rect x="70" y="10" width="5" height="5" fill="black"/>
  <rect x="75" y="10" width="5" height="5" fill="black"/>
  <rect x="80" y="10" width="5" height="5" fill="black"/>
  <rect x="85" y="10" width="5" height="5" fill="black"/>
  <rect x="10" y="15" width="5" height="5" fill="black"/>
  <rect x="25" y="15" width="5" height="5" fill="black"/>
  <rect x="30" y="15" width="5" height="5" fill="black"/>
  <rect x="35" y="15" width="5" height="5" fill="black"/>
  <rect x="45" y="15" width="5" height="5" fill="black"/>
  <rect x="55" y="15" width="5" height="5" fill="black"/>
  <rect x="65" y="15" width="5" height="5" fill="black"/>
  <rect x="80" y="15" width="5" height="5" fill="black"/>
  <rect x="10" y="20" width="5" height="5" fill="black"/>
  <rect x="25" y="20" width="5" height="5" fill="black"/>
  <rect x="30" y="20" width="5" height="5" fill="black"/>
  <rect x="40" y="20" width="5" height="5" fill="black"/>
  <rect x="45" y="20" width="5" height="5" fill="black"/>
  <rect x="55" y="20" width="5" height="5" fill="black"/>
  <rect x="60" y="20" width="5" height="5" fill="black"/>
  <rect x="65" y="20" width="5" height="5" fill="black"/>
  <rect x="75" y="20" width="5" height="5" fill="black"/>
  <rect x="85" y="20" width="5" height="5" fill="black"/>
  <rect x="10" y="25" width="5" height="5" fill="black"/>
  <rect x="15" y="25" width="5" height="5" fill="black"/>
  <rect x="20" y="25" width="5" height="5" fill="black"/>
  <rect x="25" y="25" width="5" height="5" fill="black"/>
  <rect x="30" y="25" width="5" height="5" fill="black"/>
  <rect x="40" y="25" width="5" height="5" fill="black"/>
  <rect x="50" y="25" width="5" height="5" fill="black"/>
  <rect x="60" y="25" width="5" height="5" fill="black"/>
  <rect x="65" y="25" width="5" height="5" fill="black"/>
  <rect x="70" y="25" width="5" height="5" fill="black"/>
  <rect x="75" y="25" width="5" height="5" fill="black"/>
  <rect x="10" y="30" width="5" height="5" fill="black"/>
  <rect x="15" y="30" width="5" height="5" fill="black"/>
  <rect x="25" y="30" width="5" height="5" fill="black"/>
  <rect x="30" y="30" width="5" height="5" fill="black"/>
  <rect x="50" y="30" width="5" height="5" fill="black"/>
  <rect x="60" y="30" width="5" height="5" fill="black"/>
  <rect x="70" y="30" width="5" height="5" fill="black"/>
  <rect x="80" y="30" width="5" height="5" fill="black"/>
  <rect x="85" y="30" width="5" height="5" fill="black"/>
  <rect x="10" y="35" width="5" height="5" fill="black"/>
  <rect x="15" y="35" width="5" height="5" fill="black"/>
  <rect x="20" y="35" width="5" height="5" fill="black"/>
  <rect x="45" y="35" width="5" height="5" fill="black"/>
  <rect x="50" y="35" width="5" height="5" fill="black"/>
  <rect x="65" y="35" width="5" height="5" fill="black"/>
  <rect x="70" y="35" width="5" height="5" fill="black"/>
  <rect x="75" y="35" width="5" height="5" fill="black"/>
  <rect x="10" y="40" width="5" height="5" fill="black"/>
  <rect x="35" y="40" width="5" height="5" fill="black"/>
  <rect x="40" y="40" width="5" height="5" fill="black"/>
  <rect x="50" y="40" width="5" height="5" fill="black"/>
  <rect x="60" y="40" width="5" height="5" fill="black"/>
  <rect x="65" y="40" width="5" height="5" fill="black"/>
  <rect x="70" y="40" width="5" height="5" fill="black"/>
  <rect x="80" y="40" width="5" height="5" fill="black"/>
  <rect x="85" y="40" width="5" height="5" fill="black"/>
  <rect x="10" y="45" width="5" height="5" fill="black"/>
  <rect x="20" y="45" width="5" height="5" fill="black"/>
  <rect x="40" y="45" width="5" height="5" fill="black"/>
  <rect x="45" y="45" width="5" height="5" fill="black"/>
  <rect x="50" y="45" width="5" height="5" fill="black"/>
  <rect x="55" y="45" width="5" height="5" fill="black"/>
  <rect x="60" y="45" width="5" height="5" fill="black"/>
  <rect x="65" y="45" width="5" height="5" fill="black"/>
  <rect x="70" y="45" width="5" height="5" fill="black"/>
  <rect x="75" y="45" width="5" height="5" fill="black"/>
  <rect x="10" y="50" width="5" height="5" fill="black"/>
  <rect x="25" y="50" width="5" height="5" fill="black"/>
  <rect x="40" y="50" width="5" height="5" fill="black"/>
  <rect x="45" y="50" width="5" height="5" fill="black"/>
  <rect x="70" y="50" width="5" height="5" fill="black"/>
  <rect x="85" y="50" width="5" height="5" fill="black"/>
  <rect x="10" y="55" width="5" height="5" fill="black"/>
  <rect x="20" y="55" width="5" height="5" fill="black"/>
  <rect x="30" y="55" width="5" height="5" fill="black"/>
  <rect x="35" y="55" width="5" height="5" fill="black"/>
  <rect x="40" y="55" width="5" height="5" fill="black"/>
  <rect x="45" y="55" width="5" height="5" fill="black"/>
  <rect x="50" y="55" width="5" height="5" fill="black"/>
  <rect x="60" y="55" width="5" height="5" fill="black"/>
  <rect x="65" y="55" width="5" height="5" fill="black"/>
  <rect x="70" y="55" width="5" height="5" fill="black"/>
  <rect x="75" y="55" width="5" height="5" fill="black"/>
  <rect x="80" y="55" width="5" height="5" fill="black"/>
  <rect x="10" y="60" width="5" height="5" fill="black"/>
  <rect x="15" y="60" width="5" height="5" fill="black"/>
  <rect x="20" y="60" width="5" height="5" fill="black"/>
  <rect x="25" y="60" width="5" height="5" fill="black"/>
  <rect x="35" y="60" width="5" height="5" fill="black"/>
  <rect x="40" y="60" width="5" height="5" fill="black"/>
  <rect x="50" y="60" width="5" height="5" fill="black"/>
  <rect x="55" y="60" width="5" height="5" fill="black"/>
  <rect x="60" y="60" width="5" height="5" fill="black"/>
  <rect x="70" y="60" width="5" height="5" fill="black"/>
  <rect x="80" y="60" width="5" height="5" fill="black"/>
  <rect x="85" y="60" width="5" height="5" fill="black"/>
  <rect x="10" y="65" width="5" height="5" fill="black"/>
  <rect x="25" y="65" width="5" height="5" fill="black"/>
  <rect x="30" y="65" width="5" height="5" fill="black"/>
  <rect x="35" y="65" width="5" height="5" fill="black"/>
  <rect x="50" y="65" width="5" height="5" fill="black"/>
  <rect x="75" y="65" width="5" height="5" fill="black"/>
  <rect x="80" y="65" width="5" height="5" fill="black"/>
  <rect x="10" y="70" width="5" height="5" fill="black"/>
  <rect x="20" y="70" width="5" height="5" fill="black"/>
  <rect x="30" y="70" width="5" height="5" fill="black"/>
  <rect x="45" y="70" width="5" height="5" fill="black"/>
  <rect x="55" y="70" width="5" height="5" fill="black"/>
  <rect x="60" y="70" width="5" height="5" fill="black"/>
  <rect x="65" y="70" width="5" height="5" fill="black"/>
  <rect x="70" y="70" width="5" height="5" fill="black"/>
  <rect x="75" y="70" width="5" height="5" fill="black"/>
  <rect x="85" y="70" width="5" height="5" fill="black"/>
  <rect x="10" y="75" width="5" height="5" fill="black"/>
  <rect x="15" y="75" width="5" height="5" fill="black"/>
  <rect x="35" y="75" width="5" height="5" fill="black"/>
  <rect x="40" y="75" width="5" height="5" fill="black"/>
  <rect x="50" y="75" width="5" height="5" fill="black"/>
  <rect x="60" y="75" width="5" height="5" fill="black"/>
  <rect x="65" y="75" width="5" height="5" fill="black"/>
  <rect x="80" y="75" width="5" height="5" fill="black"/>
  <rect x="10" y="80" width="5" height="5" fill="black"/>
  <rect x="20" y="80" width="5" height="5" fill="black"/>
  <rect x="25" y="80" width="5" height="5" fill="black"/>
  <rect x="35" y="80" width="5" height="5" fill="black"/>
  <rect x="40" y="80" width="5" height="5" fill="black"/>
  <rect x="50" y="80" width="5" height="5" fill="black"/>
  <rect x="60" y="80" width="5" height="5" fill="black"/>
  <rect x="65" y="80" width="5" height="5" fill="black"/>
  <rect x="70" y="80" width="5" height="5" fill="black"/>
  <rect x="85" y="80" width="5" height="5" fill="black"/>
  <rect x="10" y="85" width="5" height="5" fill="black"/>
  <rect x="20" y="85" width="5" height="5" fill="black"/>
  <rect x="30" y="85" width="5" height="5" fill="black"/>
  <rect x="40" y="85" width="5" height="5" fill="black"/>
  <rect x="50" y="85" width="5" height="5" fill="black"/>
  <rect x="60" y="85" width="5" height="5" fill="black"/>
  <rect x="70" y="85" width="5" height="5" fill="black"/>
  <rect x="80" y="85" width="5" height="5" fill="black"/>
</svg>
