<?xml version="1.0" encoding="UTF-8"?>
<svg xmlns="http://www.w3.org/2000/svg" width="90" height="90" viewBox="0 0 90 90">
  <!-- rack 17 -->
  <rect width="90" height="90" fill="white"/>
  <rect x="10" y="10" width="5" height="5" fill="black"/>
  <rect x="15" y="10" width="5" height="5" fill="black"/>
  <rect x="20" y="10" width="5" height="5" fill="black"/>
  <rect x="25" y="10" width="5" height="5" fill="black"/>
  <rect x="30" y="10" width="5" height="5" fill="black"/>
  <rect x="35" y="10" width="5" height="5" fill="black"/>
  <rect x="40" y="10" width="5" height="5" fill="black"/>
  <rect x="45" y="10" width="5" height="5" fill="black"/>
  <rect x="50" y="10" width="5" height="5" fill="black"/>
  <rect x="55" y="10" width="5" height="5" fill="black"/>
  <rect x="60" y="10" width="5" height="5" fill="black"/>
  <rect x="65" y="10" width="5" height="5" fill="black"/>
  <rect x="70" y="10" width="5" height="5" fill="black"/>
  <rect x="75" y="10" width="5" height="5" fill="black"/>
  <rect x="10" y="15" width="5" height="5" fill="black"/>
  <rect x="25" y="15" width="5" height="5" fill="black"/>
  <rect x="30" y="15" width="5" height="5" fill="black"/>
  <rect x="45" y="15" width="5" height="5" fill="black"/>
  <rect x="65" y="15" width="5" height="5" fill="black"/>
  <rect x="10" y="20" width="5" height="5" fill="black"/>
  <rect x="15" y="20" width="5" height="5" fill="black"/>
  <rect x="20" y="20" width="5" height="5" fill="black"/>
  <rect x="25" y="20" width="5" height="5" fill="black"/>
  <rect x="30" y="20" width="5" height="5" fill="black"/>
  <rect x="50" y="20" width="5" height="5" fill="black"/>
  <rect x="60" y="20" width="5" height="5" fill="black"/>
  <rect x="75" y="20" width="5" height="5" fill="black"/>
  <rect x="10" y="25" width="5" height="5" fill="black"/>
  <rect x="15" y="25" width="5" height="5" fill="black"/>
  <rect x="35" y="25" width="5" height="5" fill="black"/>
  <rect x="40" y="25" width="5" height="5" fill="black"/>
  <rect x="45" y="25" width="5" height="5" fill="black"/>
  <rect x="50" y="25" width="5" height="5" fill="black"/>
  <rect x="65" y="25" width="5" height="5" fill="black"/>
  <rect x="70" y="25" width="5" height="5" fill="black"/>
  <rect x="10" y="30" width="5" height="5" fill="black"/>
  <rect x="20" y="30" width="5" height="5" fill="black"/>
  <rect x="35" y="30" width="5" height="5" fill="black"/>
  <rect x="55" y="30" width="5" height="5" fill="black"/>
  <rect x="60" y="30" width="5" height="5" fill="black"/>
  <rect x="70" y="30" width="5" height="5" fill="black"/>
  <rect x="75" y="30" width="5" height="5" fill="black"/>
  <rect x="10" y="35" width="5" height="5" fill="black"/>
  <rect x="20" y="35" width="5" height="5" fill="black"/>
  <rect x="30" y="35" width="5" height="5" fill="black"/>
  <rect x="45" y="35" width="5" height="5" fill="black"/>
  <rect x="50" y="35" width="5" height="5" fill="black"/>
  <rect x="55" y="35" width="5" height="5" fill="black"/>
  <rect x="60" y="35" width="5" height="5" fill="black"/>
  <rect x="65" y="35" width="5" height="5" fill="black"/>
  <rect x="70" y="35" width="5" height="5" fill="black"/>
  <rect x="10" y="40" width="5" height="5" fill="black"/>
  <rect x="25" y="40" width="5" height="5" fill="black"/>
  <rect x="35" y="40" width="5" height="5" fill="black"/>
  <rect x="45" y="40" width="5" height="5" fill="black"/>
  <rect x="50" y="40" width="5" height="5" fill="black"/>
  <rect x="60" y="40" width="5" height="5" fill="black"/>
  <rect x="70" y="40" width="5" height="5" fill="black"/>
  <rect x="75" y="40" width="5" height="5" fill="black"/>
  <rect x="10" y="45" width="5" height="5" fill="black"/>
  <rect x="25" y="45" width="5" height="5" fill="black"/>
  <rect x="30" y="45" width="5" height="5" fill="black"/>
  <rect x="35" y="45" width="5" height="5" fill="black"/>
  <rect x="50" y="45" width="5" height="5" fill="black"/>
  <rect x="60" y="45" width="5" height="5" fill="black"/>
  <rect x="65" y="45" width="5" height="5" fill="black"/>
  <rect x="70" y="45" width="5" height="5" fill="black"/>
  <rect x="10" y="50" width="5" height="5" fill="black"/>
  <rect x="15" y="50" width="5" height="5" fill="black"/>
  <rect x="25" y="50" width="5" height="5" fill="black"/>
  <rect x="35" y="50" width="5" height="5" fill="black"/>
  <rect x="40" y="50" width="5" height="5" fill="black"/>
  <rect x="50" y="50" width="5" height="5" fill="black"/>
  <rect x="55" y="50" width="5" height="5" fill="black"/>
  <rect x="65" y="50" width="5" height="5" fill="black"/>
  <rect x="70" y="50" width="5" height="5" fill="black"/>
  <rect x="75" y="50" width="5" height="5" fill="black"/>
  <rect x="10" y="55" width="5" height="5" fill="black"/>
  <rect x="20" y="55" width="5" height="5" fill="black"/>
  <rect x="40" y="55" width="5" height="5" fill="black"/>
  <rect x="45" y="55" width="5" height="5" fill="black"/>
  <rect x="50" y="55" width="5" height="5" fill="black"/>
  <rect x="10" y="60" width="5" height="5" fill="black"/>
  <rect x="20" y="60" width="5" height="5" fill="black"/>
  <rect x="30" y="60" width="5" height="5" fill="black"/>
  <rect x="55" y="60" width="5" height="5" fill="black"/>
  <rect x="65" y="60" width="5" height="5" fill="black"/>
  <rect x="75" y="60" width="5" height="5" fill="black"/>
  <rect x="10" y="65" width="5" height="5" fill="black"/>
  <rect x="15" y="65" width="5" height="5" fill="black"/>
  <rect x="40" y="65" width="5" height="5" fill="black"/>
  <rect x="60" y="65" width="5" height="5" fill="black"/>
  <rect x="65" y="65" width="5" height="5" fill="black"/>
  <rect x="10" y="70" width="5" height="5" fill="black"/>
  <rect x="20" y="70" width="5" height="5" fill="black"/>
  <rect x="25" y="70" width="5" height="5" fill="black"/>
  <rect x="40" y="70" width="5" height="5" fill="black"/>
  <rect x="50" y="70" width="5" height="5" fill="black"/>
  <rect x="55" y="70" width="5" height="5" fill="black"/>
  <rect x="60" y="70" width="5" height="5" fill="black"/>
  <rect x="65" y="70" width="5" height="5" fill="black"/>
  <rect x="70" y="70" width="5" height="5" fill="black"/>
  <rect x="75" y="70" width="5" height="5" fill="black"/>
  <rect x="10" y="75" width="5" height="5" fill="black"/>
  <rect x="20" y="75" width="5" height="5" fill="black"/>
  <rect x="30" y="75" width="5" height="5" fill="black"/>
  <rect x="40" y="75" width="5" height="5" fill="black"/>
  <rect x="50" y="75" width="5" height="5" fill="black"/>
  <rect x="60" y="75" width="5" height="5" fill="black"/>
  <rect x="70" y="75" width="5" height="5" fill="black"/>
</svg>
