<?xml version="1.0" encoding="UTF-8"?>
<svg xmlns="http://www.w3.org/2000/svg" width="70" height="70" viewBox="0 0 70 70">
  <!-- SM3 -->
  <rect width="70" height="70" fill="white"/>
  <rect x="10" y="10" width="5" height="5" fill="black"/>
  <rect x="15" y="10" width="5" height="5" fill="black"/>
  <rect x="20" y="10" width="5" height="5" fill="black"/>
  <rect x="25" y="10" width="5" height="5" fill="black"/>
  <rect x="30" y="10" width="5" height="5" fill="black"/>
  <rect x="35" y="10" width="5" height="5" fill="black"/>
  <rect x="40" y="10" width="5" height="5" fill="black"/>
  <rect x="45" y="10" width="5" height="5" fill="black"/>
  <rect x="50" y="10" width="5" height="5" fill="black"/>
  <rect x="55" y="10" width="5" height="5" fill="black"/>
  <rect x="10" y="15" width="5" height="5" fill="black"/>
  <rect x="25" y="15" width="5" height="5" fill="black"/>
  <rect x="30" y="15" width="5" height="5" fill="black"/>
  <rect x="45" y="15" width="5" height="5" fill="black"/>
  <rect x="10" y="20" width="5" height="5" fill="black"/>
  <rect x="15" y="20" width="5" height="5" fill="black"/>
  <rect x="20" y="20" width="5" height="5" fill="black"/>
  <rect x="35" y="20" width="5" height="5" fill="black"/>
  <rect x="45" y="20" width="5" height="5" fill="black"/>
  <rect x="50" y="20" width="5" height="5" fill="black"/>
  <rect x="55" y="20" width="5" height="5" fill="black"/>
  <rect x="10" y="25" width="5" height="5" fill="black"/>
  <rect x="20" y="25" width="5" height="5" fill="black"/>
  <rect x="30" y="25" width="5" height="5" fill="black"/>
  <rect x="45" y="25" width="5" height="5" fill="black"/>
  <rect x="50" y="25" width="5" height="5" fill="black"/>
  <rect x="10" y="30" width="5" height="5" fill="black"/>
  <rect x="35" y="30" width="5" height="5" fill="black"/>
  <rect x="40" y="30" width="5" height="5" fill="black"/>
  <rect x="45" y="30" width="5" height="5" fill="black"/>
  <rect x="55" y="30" width="5" height="5" fill="black"/>
  <rect x="10" y="35" width="5" height="5" fill="black"/>
  <rect x="25" y="35" width="5" height="5" fill="black"/>
  <rect x="30" y="35" width="5" height="5" fill="black"/>
  <rect x="40" y="35" width="5" height="5" fill="black"/>
  <rect x="50" y="35" width="5" height="5" fill="black"/>
  <rect x="10" y="40" width="5" height="5" fill="black"/>
  <rect x="15" y="40" width="5" height="5" fill="black"/>
  <rect x="20" y="40" width="5" height="5" fill="black"/>
  <rect x="30" y="40" width="5" height="5" fill="black"/>
  <rect x="40" y="40" width="5" height="5" fill="black"/>
  <rect x="50" y="40" width="5" height="5" fill="black"/>
  <rect x="55" y="40" width="5" height="5" fill="black"/>
  <rect x="10" y="45" width="5" height="5" fill="black"/>
  <rect x="25" y="45" width="5" height="5" fill="black"/>
  <rect x="40" y="45" width="5" height="5" fill="black"/>
  <rect x="10" y="50" width="5" height="5" fill="black"/>
  <rect x="20" y="50" width="5" height="5" fill="black"/>
  <rect x="25" y="50" width="5" height="5" fill="black"/>
  <rect x="45" y="50" width="5" height="5" fill="black"/>
  <rect x="55" y="50" width="5" height="5" fill="black"/>
  <rect x="10" y="55" width="5" height="5" fill="black"/>
  <rect x="20" y="55" width="5" height="5" fill="black"/>
  <rect x="30" y="55" width="5" height="5" fill="black"/>
  <rect x="40" y="55" width="5" height="5" fill="black"/>
  <rect x="50" y="55" width="5" height="5" fill="black"/>
</svg>
