<?xml version="1.0" encoding="UTF-8"?>
<svg xmlns="http://www.w3.org/2000/svg" width="140" height="140" viewBox="0 0 140 140">
  <!-- SM3 -->
  <rect width="140" height="140" fill="white"/>
  <rect x="20" y="20" width="10" height="10" fill="black"/>
  <rect x="30" y="20" width="10" height="10" fill="black"/>
  <rect x="40" y="20" width="10" height="10" fill="black"/>
  <rect x="50" y="20" width="10" height="10" fill="black"/>
  <rect x="60" y="20" width="10" height="10" fill="black"/>
  <rect x="70" y="20" width="10" height="10" fill="black"/>
  <rect x="80" y="20" width="10" height="10" fill="black"/>
  <rect x="90" y="20" width="10" height="10" fill="black"/>
  <rect x="100" y="20" width="10" height="10" fill="black"/>
  <rect x="110" y="20" width="10" height="10" fill="black"/>
  <rect x="20" y="30" width="10" height="10" fill="black"/>
  <rect x="50" y="30" width="10" height="10" fill="black"/>
  <rect x="60" y="30" width="10" height="10" fill="black"/>
  <rect x="90" y="30" width="10" height="10" fill="black"/>
  <rect x="20" y="40" width="10" height="10" fill="black"/>
  <rect x="30" y="40" width="10" height="10" fill="black"/>
  <rect x="40" y="40" width="10" height="10" fill="black"/>
  <rect x="70" y="40" width="10" height="10" fill="black"/>
  <rect x="90" y="40" width="10" height="10" fill="black"/>
  <rect x="100" y="40" width="10" height="10" fill="black"/>
  <rect x="110" y="40" width="10" height="10" fill="black"/>
  <rect x="20" y="50" width="10" height="10" fill="black"/>
  <rect x="40" y="50" width="10" height="10" fill="black"/>
  <rect x="60" y="50" width="10" height="10" fill="black"/>
  <rect x="90" y="50" width="10" height="10" fill="black"/>
  <rect x="100" y="50" width="10" height="10" fill="black"/>
  <rect x="20" y="60" width="10" height="10" fill="black"/>
  <rect x="70" y="60" width="10" height="10" fill="black"/>
  <rect x="80" y="60" width="10" height="10" fill="black"/>
  <rect x="90" y="60" width="10" height="10" fill="black"/>
  <rect x="110" y="60" width="10" height="10" fill="black"/>
  <rect x="20" y="70" width="10" height="10" fill="black"/>
  <rect x="50" y="70" width="10" height="10" fill="black"/>
  <rect x="60" y="70" width="10" height="10" fill="black"/>
  <rect x="80" y="70" width="10" height="10" fill="black"/>
  <rect x="100" y="70" width="10" height="10" fill="black"/>
  <rect x="20" y="80" width="10" height="10" fill="black"/>
  <rect x="30" y="80" width="10" height="10" fill="black"/>
  <rect x="40" y="80" width="10" height="10" fill="black"/>
  <rect x="60" y="80" width="10" height="10" fill="black"/>
  <rect x="80" y="80" width="10" height="10" fill="black"/>
  <rect x="100" y="80" width="10" height="10" fill="black"/>
  <rect x="110" y="80" width="10" height="10" fill="black"/>
  <rect x="20" y="90" width="10" height="10" fill="black"/>
  <rect x="50" y="90" width="10" height="10" fill="black"/>
  <rect x="80" y="90" width="10" height="10" fill="black"/>
  <rect x="20" y="100" width="10" height="10" fill="black"/>
  <rect x="40" y="100" width="10" height="10" fill="black"/>
  <rect x="50" y="100" width="10" height="10" fill="black"/>
  <rect x="90" y="100" width="10" height="10" fill="black"/>
  <rect x="110" y="100" width="10" height="10" fill="black"/>
  <rect x="20" y="110" width="10" height="10" fill="black"/>
  <rect x="40" y="110" width="10" height="10" fill="black"/>
  <rect x="60" y="110" width="10" height="10" fill="black"/>
  <rect x="80" y="110" width="10" height="10" fill="black"/>
  <rect x="100" y="110" width="10" height="10" fill="black"/>
</svg>
