<?xml version="1.0" encoding="UTF-8"?>
<svg xmlns="http://www.w3.org/2000/svg" width="280" height="280" viewBox="0 0 280 280">
  <!-- Data Matrix: FIXED-SIZE -->
  <rect width="280" height="280" fill="white"/>
  <rect x="20" y="20" width="10" height="10" fill="black"/>
  <rect x="30" y="20" width="10" height="10" fill="black"/>
  <rect x="40" y="20" width="10" height="10" fill="black"/>
  <rect x="50" y="20" width="10" height="10" fill="black"/>
  <rect x="60" y="20" width="10" height="10" fill="black"/>
  <rect x="70" y="20" width="10" height="10" fill="black"/>
  <rect x="80" y="20" width="10" height="10" fill="black"/>
  <rect x="90" y="20" width="10" height="10" fill="black"/>
  <rect x="100" y="20" width="10" height="10" fill="black"/>
  <rect x="110" y="20" width="10" height="10" fill="black"/>
  <rect x="120" y="20" width="10" height="10" fill="black"/>
  <rect x="130" y="20" width="10" height="10" fill="black"/>
  <rect x="140" y="20" width="10" height="10" fill="black"/>
  <rect x="150" y="20" width="10" height="10" fill="black"/>
  <rect x="160" y="20" width="10" height="10" fill="black"/>
  <rect x="170" y="20" width="10" height="10" fill="black"/>
  <rect x="180" y="20" width="10" height="10" fill="black"/>
  <rect x="190" y="20" width="10" height="10" fill="black"/>
  <rect x="200" y="20" width="10" height="10" fill="black"/>
  <rect x="210" y="20" width="10" height="10" fill="black"/>
  <rect x="220" y="20" width="10" height="10" fill="black"/>
  <rect x="230" y="20" width="10" height="10" fill="black"/>
  <rect x="240" y="20" width="10" height="10" fill="black"/>
  <rect x="250" y="20" width="10" height="10" fill="black"/>
  <rect x="20" y="30" width="10" height="10" fill="black"/>
  <rect x="50" y="30" width="10" height="10" fill="black"/>
  <rect x="60" y="30" width="10" height="10" fill="black"/>
  <rect x="80" y="30" width="10" height="10" fill="black"/>
  <rect x="90" y="30" width="10" height="10" fill="black"/>
  <rect x="110" y="30" width="10" height="10" fill="black"/>
  <rect x="120" y="30" width="10" height="10" fill="black"/>
  <rect x="130" y="30" width="10" height="10" fill="black"/>
  <rect x="140" y="30" width="10" height="10" fill="black"/>
  <rect x="190" y="30" width="10" height="10" fill="black"/>
  <rect x="210" y="30" width="10" height="10" fill="black"/>
  <rect x="220" y="30" width="10" height="10" fill="black"/>
  <rect x="240" y="30" width="10" height="10" fill="black"/>
  <rect x="20" y="40" width="10" height="10" fill="black"/>
  <rect x="50" y="40" width="10" height="10" fill="black"/>
  <rect x="60" y="40" width="10" height="10" fill="black"/>
  <rect x="80" y="40" width="10" height="10" fill="black"/>
  <rect x="100" y="40" width="10" height="10" fill="black"/>
  <rect x="140" y="40" width="10" height="10" fill="black"/>
  <rect x="150" y="40" width="10" height="10" fill="black"/>
  <rect x="160" y="40" width="10" height="10" fill="black"/>
  <rect x="170" y="40" width="10" height="10" fill="black"/>
  <rect x="180" y="40" width="10" height="10" fill="black"/>
  <rect x="200" y="40" width="10" height="10" fill="black"/>
  <rect x="230" y="40" width="10" height="10" fill="black"/>
  <rect x="250" y="40" width="10" height="10" fill="black"/>
  <rect x="20" y="50" width="10" height="10" fill="black"/>
  <rect x="60" y="50" width="10" height="10" fill="black"/>
  <rect x="70" y="50" width="10" height="10" fill="black"/>
  <rect x="90" y="50" width="10" height="10" fill="black"/>
  <rect x="110" y="50" width="10" height="10" fill="black"/>
  <rect x="120" y="50" width="10" height="10" fill="black"/>
  <rect x="140" y="50" width="10" height="10" fill="black"/>
  <rect x="150" y="50" width="10" height="10" fill="black"/>
  <rect x="170" y="50" width="10" height="10" fill="black"/>
  <rect x="180" y="50" width="10" height="10" fill="black"/>
  <rect x="190" y="50" width="10" height="10" fill="black"/>
  <rect x="200" y="50" width="10" height="10" fill="black"/>
  <rect x="210" y="50" width="10" height="10" fill="black"/>
  <rect x="230" y="50" width="10" height="10" fill="black"/>
  <rect x="20" y="60" width="10" height="10" fill="black"/>
  <rect x="30" y="60" width="10" height="10" fill="black"/>
  <rect x="60" y="60" width="10" height="10" fill="black"/>
  <rect x="90" y="60" width="10" height="10" fill="black"/>
  <rect x="100" y="60" width="10" height="10" fill="black"/>
  <rect x="110" y="60" width="10" height="10" fill="black"/>
  <rect x="120" y="60" width="10" height="10" fill="black"/>
  <rect x="130" y="60" width="10" height="10" fill="black"/>
  <rect x="170" y="60" width="10" height="10" fill="black"/>
  <rect x="180" y="60" width="10" height="10" fill="black"/>
  <rect x="190" y="60" width="10" height="10" fill="black"/>
  <rect x="200" y="60" width="10" height="10" fill="black"/>
  <rect x="230" y="60" width="10" height="10" fill="black"/>
  <rect x="240" y="60" width="10" height="10" fill="black"/>
  <rect x="250" y="60" width="10" height="10" fill="black"/>
  <rect x="20" y="70" width="10" height="10" fill="black"/>
  <rect x="30" y="70" width="10" height="10" fill="black"/>
  <rect x="70" y="70" width="10" height="10" fill="black"/>
  <rect x="80" y="70" width="10" height="10" fill="black"/>
  <rect x="90" y="70" width="10" height="10" fill="black"/>
  <rect x="100" y="70" width="10" height="10" fill="black"/>
  <rect x="140" y="70" width="10" height="10" fill="black"/>
  <rect x="160" y="70" width="10" height="10" fill="black"/>
  <rect x="200" y="70" width="10" height="10" fill="black"/>
  <rect x="220" y="70" width="10" height="10" fill="black"/>
  <rect x="230" y="70" width="10" height="10" fill="black"/>
  <rect x="240" y="70" width="10" height="10" fill="black"/>
  <rect x="20" y="80" width="10" height="10" fill="black"/>
  <rect x="30" y="80" width="10" height="10" fill="black"/>
  <rect x="60" y="80" width="10" height="10" fill="black"/>
  <rect x="70" y="80" width="10" height="10" fill="black"/>
  <rect x="100" y="80" width="10" height="10" fill="black"/>
  <rect x="110" y="80" width="10" height="10" fill="black"/>
  <rect x="150" y="80" width="10" height="10" fill="black"/>
  <rect x="160" y="80" width="10" height="10" fill="black"/>
  <rect x="170" y="80" width="10" height="10" fill="black"/>
  <rect x="190" y="80" width="10" height="10" fill="black"/>
  <rect x="200" y="80" width="10" height="10" fill="black"/>
  <rect x="210" y="80" width="10" height="10" fill="black"/>
  <rect x="220" y="80" width="10" height="10" fill="black"/>
  <rect x="230" y="80" width="10" height="10" fill="black"/>
  <rect x="240" y="80" width="10" height="10" fill="black"/>
  <rect x="250" y="80" width="10" height="10" fill="black"/>
  <rect x="20" y="90" width="10" height="10" fill="black"/>
  <rect x="30" y="90" width="10" height="10" fill="black"/>
  <rect x="50" y="90" width="10" height="10" fill="black"/>
  <rect x="60" y="90" width="10" height="10" fill="black"/>
  <rect x="70" y="90" width="10" height="10" fill="black"/>
  <rect x="110" y="90" width="10" height="10" fill="black"/>
  <rect x="120" y="90" width="10" height="10" fill="black"/>
  <rect x="130" y="90" width="10" height="10" fill="black"/>
  <rect x="150" y="90" width="10" height="10" fill="black"/>
  <rect x="160" y="90" width="10" height="10" fill="black"/>
  <rect x="170" y="90" width="10" height="10" fill="black"/>
  <rect x="180" y="90" width="10" height="10" fill="black"/>
  <rect x="190" y="90" width="10" height="10" fill="black"/>
  <rect x="200" y="90" width="10" height="10" fill="black"/>
  <rect x="230" y="90" width="10" height="10" fill="black"/>
  <rect x="20" y="100" width="10" height="10" fill="black"/>
  <rect x="30" y="100" width="10" height="10" fill="black"/>
  <rect x="90" y="100" width="10" height="10" fill="black"/>
  <rect x="100" y="100" width="10" height="10" fill="black"/>
  <rect x="110" y="100" width="10" height="10" fill="black"/>
  <rect x="120" y="100" width="10" height="10" fill="black"/>
  <rect x="130" y="100" width="10" height="10" fill="black"/>
  <rect x="160" y="100" width="10" height="10" fill="black"/>
  <rect x="190" y="100" width="10" height="10" fill="black"/>
  <rect x="200" y="100" width="10" height="10" fill="black"/>
  <rect x="220" y="100" width="10" height="10" fill="black"/>
  <rect x="240" y="100" width="10" height="10" fill="black"/>
  <rect x="250" y="100" width="10" height="10" fill="black"/>
  <rect x="20" y="110" width="10" height="10" fill="black"/>
  <rect x="30" y="110" width="10" height="10" fill="black"/>
  <rect x="40" y="110" width="10" height="10" fill="black"/>
  <rect x="50" y="110" width="10" height="10" fill="black"/>
  <rect x="60" y="110" width="10" height="10" fill="black"/>
  <rect x="80" y="110" width="10" height="10" fill="black"/>
  <rect x="190" y="110" width="10" height="10" fill="black"/>
  <rect x="20" y="120" width="10" height="10" fill="black"/>
  <rect x="50" y="120" width="10" height="10" fill="black"/>
  <rect x="60" y="120" width="10" height="10" fill="black"/>
  <rect x="70" y="120" width="10" height="10" fill="black"/>
  <rect x="80" y="120" width="10" height="10" fill="black"/>
  <rect x="130" y="120" width="10" height="10" fill="black"/>
  <rect x="140" y="120" width="10" height="10" fill="black"/>
  <rect x="150" y="120" width="10" height="10" fill="black"/>
  <rect x="180" y="120" width="10" height="10" fill="black"/>
  <rect x="210" y="120" width="10" height="10" fill="black"/>
  <rect x="240" y="120" width="10" height="10" fill="black"/>
  <rect x="250" y="120" width="10" height="10" fill="black"/>
  <rect x="20" y="130" width="10" height="10" fill="black"/>
  <rect x="30" y="130" width="10" height="10" fill="black"/>
  <rect x="40" y="130" width="10" height="10" fill="black"/>
  <rect x="50" y="130" width="10" height="10" fill="black"/>
  <rect x="80" y="130" width="10" height="10" fill="black"/>
  <rect x="90" y="130" width="10" height="10" fill="black"/>
  <rect x="110" y="130" width="10" height="10" fill="black"/>
  <rect x="140" y="130" width="10" height="10" fill="black"/>
  <rect x="150" y="130" width="10" height="10" fill="black"/>
  <rect x="160" y="130" width="10" height="10" fill="black"/>
  <rect x="190" y="130" width="10" height="10" fill="black"/>
  <rect x="200" y="130" width="10" height="10" fill="black"/>
  <rect x="220" y="130" width="10" height="10" fill="black"/>
  <rect x="240" y="130" width="10" height="10" fill="black"/>
  <rect x="20" y="140" width="10" height="10" fill="black"/>
  <rect x="40" y="140" width="10" height="10" fill="black"/>
  <rect x="50" y="140" width="10" height="10" fill="black"/>
  <rect x="80" y="140" width="10" height="10" fill="black"/>
  <rect x="100" y="140" width="10" height="10" fill="black"/>
  <rect x="110" y="140" width="10" height="10" fill="black"/>
  <rect x="120" y="140" width="10" height="10" fill="black"/>
  <rect x="140" y="140" width="10" height="10" fill="black"/>
  <rect x="150" y="140" width="10" height="10" fill="black"/>
  <rect x="190" y="140" width="10" height="10" fill="black"/>
  <rect x="200" y="140" width="10" height="10" fill="black"/>
  <rect x="210" y="140" width="10" height="10" fill="black"/>
  <rect x="250" y="140" width="10" height="10" fill="black"/>
  <rect x="20" y="150" width="10" height="10" fill="black"/>
  <rect x="40" y="150" width="10" height="10" fill="black"/>
  <rect x="50" y="150" width="10" height="10" fill="black"/>
  <rect x="70" y="150" width="10" height="10" fill="black"/>
  <rect x="90" y="150" width="10" height="10" fill="black"/>
  <rect x="110" y="150" width="10" height="10" fill="black"/>
  <rect x="120" y="150" width="10" height="10" fill="black"/>
  <rect x="130" y="150" width="10" height="10" fill="black"/>
  <rect x="160" y="150" width="10" height="10" fill="black"/>
  <rect x="180" y="150" width="10" height="10" fill="black"/>
  <rect x="220" y="150" width="10" height="10" fill="black"/>
  <rect x="230" y="150" width="10" height="10" fill="black"/>
  <rect x="240" y="150" width="10" height="10" fill="black"/>
  <rect x="20" y="160" width="10" height="10" fill="black"/>
  <rect x="40" y="160" width="10" height="10" fill="black"/>
  <rect x="50" y="160" width="10" height="10" fill="black"/>
  <rect x="60" y="160" width="10" height="10" fill="black"/>
  <rect x="80" y="160" width="10" height="10" fill="black"/>
  <rect x="90" y="160" width="10" height="10" fill="black"/>
  <rect x="110" y="160" width="10" height="10" fill="black"/>
  <rect x="120" y="160" width="10" height="10" fill="black"/>
  <rect x="130" y="160" width="10" height="10" fill="black"/>
  <rect x="140" y="160" width="10" height="10" fill="black"/>
  <rect x="160" y="160" width="10" height="10" fill="black"/>
  <rect x="170" y="160" width="10" height="10" fill="black"/>
  <rect x="220" y="160" width="10" height="10" fill="black"/>
  <rect x="230" y="160" width="10" height="10" fill="black"/>
  <rect x="250" y="160" width="10" height="10" fill="black"/>
  <rect x="20" y="170" width="10" height="10" fill="black"/>
  <rect x="80" y="170" width="10" height="10" fill="black"/>
  <rect x="100" y="170" width="10" height="10" fill="black"/>
  <rect x="140" y="170" width="10" height="10" fill="black"/>
  <rect x="160" y="170" width="10" height="10" fill="black"/>
  <rect x="180" y="170" width="10" height="10" fill="black"/>
  <rect x="190" y="170" width="10" height="10" fill="black"/>
  <rect x="200" y="170" width="10" height="10" fill="black"/>
  <rect x="220" y="170" width="10" height="10" fill="black"/>
  <rect x="20" y="180" width="10" height="10" fill="black"/>
  <rect x="30" y="180" width="10" height="10" fill="black"/>
  <rect x="60" y="180" width="10" height="10" fill="black"/>
  <rect x="90" y="180" width="10" height="10" fill="black"/>
  <rect x="110" y="180" width="10" height="10" fill="black"/>
  <rect x="120" y="180" width="10" height="10" fill="black"/>
  <rect x="130" y="180" width="10" height="10" fill="black"/>
  <rect x="150" y="180" width="10" height="10" fill="black"/>
  <rect x="170" y="180" width="10" height="10" fill="black"/>
  <rect x="190" y="180" width="10" height="10" fill="black"/>
  <rect x="200" y="180" width="10" height="10" fill="black"/>
  <rect x="230" y="180" width="10" height="10" fill="black"/>
  <rect x="240" y="180" width="10" height="10" fill="black"/>
  <rect x="250" y="180" width="10" height="10" fill="black"/>
  <rect x="20" y="190" width="10" height="10" fill="black"/>
  <rect x="30" y="190" width="10" height="10" fill="black"/>
  <rect x="40" y="190" width="10" height="10" fill="black"/>
  <rect x="50" y="190" width="10" height="10" fill="black"/>
  <rect x="120" y="190" width="10" height="10" fill="black"/>
  <rect x="140" y="190" width="10" height="10" fill="black"/>
  <rect x="150" y="190" width="10" height="10" fill="black"/>
  <rect x="170" y="190" width="10" height="10" fill="black"/>
  <rect x="20" y="200" width="10" height="10" fill="black"/>
  <rect x="30" y="200" width="10" height="10" fill="black"/>
  <rect x="40" y="200" width="10" height="10" fill="black"/>
  <rect x="60" y="200" width="10" height="10" fill="black"/>
  <rect x="70" y="200" width="10" height="10" fill="black"/>
  <rect x="100" y="200" width="10" height="10" fill="black"/>
  <rect x="110" y="200" width="10" height="10" fill="black"/>
  <rect x="180" y="200" width="10" height="10" fill="black"/>
  <rect x="190" y="200" width="10" height="10" fill="black"/>
  <rect x="220" y="200" width="10" height="10" fill="black"/>
  <rect x="240" y="200" width="10" height="10" fill="black"/>
  <rect x="250" y="200" width="10" height="10" fill="black"/>
  <rect x="20" y="210" width="10" height="10" fill="black"/>
  <rect x="60" y="210" width="10" height="10" fill="black"/>
  <rect x="80" y="210" width="10" height="10" fill="black"/>
  <rect x="100" y="210" width="10" height="10" fill="black"/>
  <rect x="120" y="210" width="10" height="10" fill="black"/>
  <rect x="140" y="210" width="10" height="10" fill="black"/>
  <rect x="160" y="210" width="10" height="10" fill="black"/>
  <rect x="200" y="210" width="10" height="10" fill="black"/>
  <rect x="20" y="220" width="10" height="10" fill="black"/>
  <rect x="40" y="220" width="10" height="10" fill="black"/>
  <rect x="90" y="220" width="10" height="10" fill="black"/>
  <rect x="120" y="220" width="10" height="10" fill="black"/>
  <rect x="140" y="220" width="10" height="10" fill="black"/>
  <rect x="160" y="220" width="10" height="10" fill="black"/>
  <rect x="170" y="220" width="10" height="10" fill="black"/>
  <rect x="180" y="220" width="10" height="10" fill="black"/>
  <rect x="200" y="220" width="10" height="10" fill="black"/>
  <rect x="220" y="220" width="10" height="10" fill="black"/>
  <rect x="230" y="220" width="10" height="10" fill="black"/>
  <rect x="250" y="220" width="10" height="10" fill="black"/>
  <rect x="20" y="230" width="10" height="10" fill="black"/>
  <rect x="50" y="230" width="10" height="10" fill="black"/>
  <rect x="70" y="230" width="10" height="10" fill="black"/>
  <rect x="80" y="230" width="10" height="10" fill="black"/>
  <rect x="90" y="230" width="10" height="10" fill="black"/>
  <rect x="110" y="230" width="10" height="10" fill="black"/>
  <rect x="130" y="230" width="10" height="10" fill="black"/>
  <rect x="140" y="230" width="10" height="10" fill="black"/>
  <rect x="150" y="230" width="10" height="10" fill="black"/>
  <rect x="160" y="230" width="10" height="10" fill="black"/>
  <rect x="170" y="230" width="10" height="10" fill="black"/>
  <rect x="180" y="230" width="10" height="10" fill="black"/>
  <rect x="200" y="230" width="10" height="10" fill="black"/>
  <rect x="210" y="230" width="10" height="10" fill="black"/>
  <rect x="220" y="230" width="10" height="10" fill="black"/>
  <rect x="230" y="230" width="10" height="10" fill="black"/>
  <rect x="20" y="240" width="10" height="10" fill="black"/>
  <rect x="40" y="240" width="10" height="10" fill="black"/>
  <rect x="70" y="240" width="10" height="10" fill="black"/>
  <rect x="170" y="240" width="10" height="10" fill="black"/>
  <rect x="200" y="240" width="10" height="10" fill="black"/>
  <rect x="220" y="240" width="10" height="10" fill="black"/>
  <rect x="230" y="240" width="10" height="10" fill="black"/>
  <rect x="240" y="240" width="10" height="10" fill="black"/>
  <rect x="250" y="240" width="10" height="10" fill="black"/>
  <rect x="20" y="250" width="10" height="10" fill="black"/>
  <rect x="40" y="250" width="10" height="10" fill="black"/>
  <rect x="60" y="250" width="10" height="10" fill="black"/>
  <rect x="80" y="250" width="10" height="10" fill="black"/>
  <rect x="100" y="250" width="10" height="10" fill="black"/>
  <rect x="120" y="250" width="10" height="10" fill="black"/>
  <rect x="140" y="250" width="10" height="10" fill="black"/>
  <rect x="160" y="250" width="10" height="10" fill="black"/>
  <rect x="180" y="250" width="10" height="10" fill="black"/>
  <rect x="200" y="250" width="10" height="10" fill="black"/>
  <rect x="220" y="250" width="10" height="10" fill="black"/>
  <rect x="240" y="250" width="10" height="10" fill="black"/>
</svg>
